<svg xmlns="http://www.w3.org/2000/svg" viewBox="0 0 64 64" fill="none">
  <defs>
    <linearGradient id="heart" x1="12" y1="10" x2="54" y2="54" gradientUnits="userSpaceOnUse">
      <stop stop-color="#35C97D" />
      <stop offset="1" stop-color="#1D9E75" />
    </linearGradient>
  </defs>

  <path
    d="M32 62c-1.1 0-2.1-.3-3-1.1C12.8 47.8 2.2 38.4 2.2 26.8 2.2 17.2 9.8 9.6 19.2 9.6c5.1 0 9.8 2.3 12.8 6.3 3-4 7.7-6.3 12.8-6.3 9.4 0 17 7.6 17 17.2 0 11.6-10.6 21-26.8 34.1-.9.8-1.9 1.1-3 1.1z"
    fill="url(#heart)"
  />

  <path
    d="M8 34h13l3.6-8.2 5.3 15.4 4.5-10.2h21"
    stroke="#F4FFF7"
    stroke-width="3.9"
    stroke-linejoin="round"
    stroke-linecap="round"
  />
</svg>
